#!OML:ASF H:\LiuWeirdWalks\Patient Classification 1\Patient 1\Session 1\male.ASF
:FULLY-SPECIFIED
:DEGREES
637
root 0.361682 18.0556 38.6405 -2.88034 -0.859601 -10.0721
lowerback 10.4257 -0.0659057 6.84715
upperback -0.252303 1.01546 4.2052
thorax -6.09978 0.353645 0.419061
lowerneck -23.2103 1.14691 7.06682
upperneck 23.7905 0.732846 -6.00084
head 11.675 0.182999 -3.3052
rclavicle 8.85834e-015 -3.598e-014
rhumerus -43.7801 -0.200053 -78.5672
rradius 39.5684
rwrist -9.989
rhand -18.9181 -2.55965
rfingers 7.12502
rthumb 7.38422 -32.4108
lclavicle 8.85834e-015 -3.598e-014
lhumerus -40.7373 -6.17904 86.0613
lradius 45.8741
lwrist 7.29387
lhand -14.5131 -8.51547
lfingers 7.12502
lthumb 11.6343 21.1415
rfemur -21.9932 -13.697 25.1796
rtibia 80.3912
rfoot -9.1602 -12.0802
rtoes -10.8462
lfemur -8.66109 -2.43052 -16.0214
ltibia 30.7185
lfoot -4.52355 16.5
ltoes 1.58418
638
root 0.356971 18.047 38.6623 -2.71817 -0.832407 -9.92791
lowerback 10.4022 0.146492 7.24975
upperback -0.328886 1.33637 3.9725
thorax -6.14054 0.492213 -0.0990587
lowerneck -23.5468 0.817758 6.64121
upperneck 23.8922 0.297487 -5.62907
head 11.7429 -0.00485529 -3.17078
rclavicle -1.63997e-015 -3.18055e-015
rhumerus -43.8775 -1.07387 -78.2365
rradius 39.5579
rwrist -9.78934
rhand -18.9061 -2.55895
rfingers 7.12502
rthumb 7.39578 -32.4097
lclavicle -1.63997e-015 -3.18055e-015
lhumerus -40.3058 -7.22527 86.2637
lradius 46.256
lwrist 7.32221
lhand -14.6021 -8.49491
lfingers 7.12502
lthumb 11.5485 21.1669
rfemur -22.4872 -13.5987 25.0841
rtibia 80.5509
rfoot -9.28546 -11.9429
rtoes -10.9316
lfemur -8.68597 -2.30136 -16.1509
ltibia 30.5863
lfoot -4.73308 16.4501
ltoes 1.72379
639
root 0.351889 18.0381 38.6844 -2.49704 -0.797134 -9.81257
lowerback 10.2341 0.280176 7.53452
upperback -0.287892 1.51644 3.80028
thorax -5.98032 0.574087 -0.464996
lowerneck -24.1752 0.646605 6.40848
upperneck 24.0093 0.0349008 -5.39091
head 11.8894 -0.116479 -3.09582
rclavicle -7.05064e-015 -3.73715e-014
rhumerus -43.6515 -1.73591 -78.0061
rradius 39.4648
rwrist -9.67202
rhand -18.8964 -2.58302
rfingers 7.12502
rthumb 7.40518 -32.4334
lclavicle -7.05064e-015 -3.73715e-014
lhumerus -39.66 -7.93377 86.3032
lradius 46.594
lwrist 7.37299
lhand -14.6902 -8.45642
lfingers 7.12502
lthumb 11.4635 21.2102
rfemur -23.0238 -13.4829 25.0418
rtibia 80.6619
rfoot -9.41935 -11.8552
rtoes -10.9818
lfemur -8.8054 -2.15532 -16.2444
ltibia 30.5009
lfoot -4.96422 16.3896
ltoes 1.89613
640
root 0.345532 18.0269 38.7032 -2.32967 -0.737939 -9.62062
lowerback 10.1666 0.346907 7.57404
upperback -0.27432 1.59403 3.68045
thorax -5.91794 0.611157 -0.624075
lowerneck -24.628 0.562453 6.28495
upperneck 24.0959 -0.10367 -5.25665
head 12.0003 -0.17443 -3.05549
rclavicle 9.63484e-015 -1.68967e-014
rhumerus -43.4625 -2.17359 -77.8081
rradius 39.3552
rwrist -9.62095
rhand -18.8796 -2.62567
rfingers 7.12502
rthumb 7.42137 -32.4755
lclavicle 9.63484e-015 -1.68967e-014
lhumerus -39.132 -8.35099 86.2835
lradius 46.9195
lwrist 7.44304
lhand -14.7958 -8.42893
lfingers 7.12502
lthumb 11.3616 21.2433
rfemur -23.491 -13.3915 24.9031
rtibia 80.727
rfoot -9.56944 -11.8042
rtoes -11.0219
lfemur -8.91137 -2.01414 -16.4248
ltibia 30.467
lfoot -5.22346 16.3229
ltoes 2.09735
641
root 0.339366 18.0171 38.7236 -2.08009 -0.682512 -9.47387
lowerback 9.97651 0.316433 7.43373
upperback -0.276578 1.51611 3.67553
thorax -5.82058 0.580067 -0.537905
lowerneck -24.9636 0.64222 6.35779
upperneck 24.1511 -0.0300632 -5.29064
head 12.0917 -0.141311 -3.07418
rclavicle 1.17345e-014 -1.63003e-014
rhumerus -43.2047 -2.23578 -77.6968
rradius 39.2132
rwrist -9.65889
rhand -18.8947 -2.6843
rfingers 7.12502
rthumb 7.40683 -32.5346
lclavicle 1.17345e-014 -1.63003e-014
lhumerus -38.6871 -8.30636 86.1579
lradius 47.2199
lwrist 7.4482
lhand -14.8932 -8.41989
lfingers 7.12502
lthumb 11.2678 21.2575
rfemur -24.0171 -13.2729 24.8414
rtibia 80.7255
rfoot -9.72424 -11.8179
rtoes -11.0153
lfemur -9.12428 -1.87181 -16.555
ltibia 30.4742
lfoot -5.49003 16.264
ltoes 2.28032
642
root 0.332477 18.0085 38.7447 -1.76685 -0.617426 -9.37243
lowerback 9.71894 0.197706 7.12211
upperback -0.341567 1.30619 3.78454
thorax -5.76546 0.488612 -0.217385
lowerneck -25.0484 0.859003 6.60586
upperneck 24.1565 0.233277 -5.4925
head 12.1297 -0.028764 -3.14946
rclavicle 6.4605e-015 5.02925e-014
rhumerus -42.992 -1.94517 -77.6433
rradius 39.0558
rwrist -9.7478
rhand -18.9425 -2.74645
rfingers 7.12502
rthumb 7.36066 -32.5984
lclavicle 6.4605e-015 5.02925e-014
lhumerus -38.4164 -7.85684 85.9787
lradius 47.503
lwrist 7.46598
lhand -15.0118 -8.40327
lfingers 7.12502
lthumb 11.1534 21.2803
rfemur -24.5799 -13.1432 24.8536
rtibia 80.6554
rfoot -9.88375 -11.8917
rtoes -10.9959
lfemur -9.42572 -1.73398 -16.6324
ltibia 30.5143
lfoot -5.73894 16.2028
ltoes 2.49503
643
root 0.324854 18.0007 38.7652 -1.44562 -0.541195 -9.26673
lowerback 9.48102 -0.00555989 6.59801
upperback -0.476511 0.974226 3.99354
thorax -5.80305 0.341745 0.34324
lowerneck -24.8263 1.18636 6.99636
upperneck 24.0875 0.660136 -5.8402
head 12.0948 0.152123 -3.27094
rclavicle 3.13086e-015 7.55382e-015
rhumerus -42.8621 -1.31952 -77.6291
rradius 38.883
rwrist -9.84292
rhand -19.0188 -2.7958
rfingers 7.12502
rthumb 7.28703 -32.6503
lclavicle 3.13086e-015 7.55382e-015
lhumerus -38.3647 -7.0205 85.7587
lradius 47.7765
lwrist 7.4223
lhand -15.1406 -8.38146
lfingers 7.12502
lthumb 11.0291 21.3088
rfemur -25.1322 -13.0171 24.8685
rtibia 80.5271
rfoot -10.0419 -12.0059
rtoes -10.9112
lfemur -9.74644 -1.62139 -16.7162
ltibia 30.5697
lfoot -5.96112 16.1505
ltoes 2.67335
644
root 0.31641 17.9941 38.7853 -1.10094 -0.454489 -9.19833
lowerback 9.24899 -0.103085 6.3181
upperback -0.667131 0.811823 4.12207
thorax -5.88558 0.268405 0.659342
lowerneck -24.5529 1.33228 7.1712
upperneck 24.0279 0.870571 -6.02178
head 12.0373 0.23994 -3.3294
rclavicle -9.19379e-015 -1.39149e-014
rhumerus -42.9377 -1.1017 -77.4893
rradius 38.7332
rwrist -9.86786
rhand -19.1022 -2.83495
rfingers 7.12502
rthumb 7.20647 -32.6922
lclavicle -9.19379e-015 -1.39149e-014
lhumerus -38.339 -6.56324 85.6387
lradius 47.9944
lwrist 7.41363
lhand -15.2743 -8.33341
lfingers 7.12502
lthumb 10.9002 21.3637
rfemur -25.6825 -12.8895 24.9423
rtibia 80.3341
rfoot -10.1885 -12.1654
rtoes -10.7744
lfemur -10.1002 -1.53626 -16.7564
ltibia 30.6355
lfoot -6.14677 16.1073
ltoes 2.80698
645
root 0.30649 17.9861 38.8004 -0.904817 -0.349123 -9.02426
lowerback 9.22232 -0.241673 5.84232
upperback -0.83218 0.591656 4.25836
thorax -6.05804 0.172632 1.10164
lowerneck -24.2132 1.52406 7.41136
upperneck 23.9248 1.14215 -6.26088
head 11.957 0.354159 -3.40886
rclavicle 3.2551e-015 -5.80451e-014
rhumerus -42.9956 -0.775557 -77.3764
rradius 38.552
rwrist -9.86169
rhand -19.1937 -2.87769
rfingers 7.12502
rthumb 7.11822 -32.738
lclavicle 3.2551e-015 -5.80451e-014
lhumerus -38.3579 -5.94033 85.4841
lradius 48.1817
lwrist 7.41208
lhand -15.4247 -8.28549
lfingers 7.12502
lthumb 10.7551 21.4192
rfemur -26.0659 -12.7964 24.8681
rtibia 80.0968
rfoot -10.3482 -12.3233
rtoes -10.6264
lfemur -10.3072 -1.49117 -16.9158
ltibia 30.6961
lfoot -6.3121 16.0686
ltoes 2.91097
646
root 0.296956 17.9792 38.8135 -0.703785 -0.25237 -8.86064
lowerback 9.23885 -0.233718 5.68713
upperback -1.03687 0.600882 4.25584
thorax -6.28578 0.176304 1.18765
lowerneck -23.9299 1.48086 7.3571
upperneck 23.868 1.11746 -6.24753
head 11.8778 0.3425 -3.39419
rclavicle 9.93923e-016 -3.10104e-014
rhumerus -43.2581 -0.991538 -77.1296
rradius 38.4017
rwrist -9.80117
rhand -19.2892 -2.90237
rfingers 7.12502
rthumb 7.02594 -32.7658
lclavicle 9.93923e-016 -3.10104e-014
lhumerus -38.3469 -5.84885 85.4439
lradius 48.3065
lwrist 7.44158
lhand -15.6066 -8.24484
lfingers 7.12502
lthumb 10.5796 21.4689
rfemur -26.4359 -12.6842 24.8165
rtibia 79.7934
rfoot -10.4968 -12.4912
rtoes -10.446
lfemur -10.5288 -1.45768 -17.0617
ltibia 30.763
lfoot -6.46379 16.0344
ltoes 3.01692
647
root 0.288039 17.9732 38.8256 -0.541289 -0.17229 -8.70621
lowerback 9.23467 -0.23192 5.58936
upperback -1.09885 0.594184 4.2233
thorax -6.34956 0.174159 1.20982
lowerneck -24.0338 1.48593 7.35042
upperneck 23.8578 1.11281 -6.22603
head 11.8934 0.34138 -3.38636
rclavicle 4.41053e-016 3.02153e-014
rhumerus -43.2523 -1.28639 -76.9411
rradius 38.1935
rwrist -9.68215
rhand -19.3754 -2.92329
rfingers 7.12502
rthumb 6.94281 -32.7894
lclavicle 4.41053e-016 3.02153e-014
lhumerus -38.0808 -5.72551 85.3167
lradius 48.3638
lwrist 7.48384
lhand -15.8056 -8.23367
lfingers 7.12502
lthumb 10.3877 21.4897
rfemur -26.7358 -12.5508 24.7693
rtibia 79.4207
rfoot -10.6318 -12.6477
rtoes -10.2455
lfemur -10.7085 -1.42849 -17.1976
ltibia 30.8265
lfoot -6.62195 16.0007
ltoes 3.09992
648
root 0.279196 17.9677 38.837 -0.390318 -0.101105 -8.59053
lowerback 9.23186 -0.228412 5.54475
upperback -1.14886 0.595326 4.19542
thorax -6.40102 0.174447 1.20593
lowerneck -24.1363 1.48824 7.33839
upperneck 23.8381 1.10386 -6.19682
head 11.9046 0.338793 -3.37511
rclavicle -2.98177e-015 3.26007e-014
rhumerus -43.2446 -1.58864 -76.7626
rradius 37.9646
rwrist -9.54366
rhand -19.4395 -2.94228
rfingers 7.12502
rthumb 6.88093 -32.8105
lclavicle -2.98177e-015 3.26007e-014
lhumerus -37.824 -5.59004 85.1828
lradius 48.3877
lwrist 7.52652
lhand -16.0086 -8.23474
lfingers 7.12502
lthumb 10.1919 21.4984
rfemur -26.9861 -12.405 24.767
rtibia 78.9673
rfoot -10.7624 -12.7911
rtoes -10.0899
lfemur -10.8828 -1.39433 -17.2881
ltibia 30.8983
lfoot -6.79582 15.9568
ltoes 3.20745
